<?xml version="1.0" standalone="no"?><!DOCTYPE svg PUBLIC "-//W3C//DTD SVG 1.1//EN" "http://www.w3.org/Graphics/SVG/1.1/DTD/svg11.dtd"><svg t="1723303885395" class="icon" viewBox="0 0 1024 1024" version="1.1" xmlns="http://www.w3.org/2000/svg" p-id="51470" xmlns:xlink="http://www.w3.org/1999/xlink" width="200" height="200"><path d="M896 773.12h-97.28c-15.36-51.2-61.44-87.04-117.76-87.04-56.32 0-102.4 35.84-117.76 87.04H276.48c-66.56 0-112.64-46.08-112.64-112.64s46.08-112.64 112.64-112.64H742.4c107.52 0 189.44-81.92 189.44-189.44S849.92 168.96 742.4 168.96H460.8c-15.36-51.2-61.44-87.04-117.76-87.04s-102.4 35.84-117.76 87.04H128c-20.48 0-40.96 15.36-40.96 40.96s15.36 40.96 40.96 40.96h97.28c15.36 51.2 61.44 87.04 117.76 87.04s102.4-35.84 117.76-87.04h286.72c66.56 0 112.64 46.08 112.64 112.64s-46.08 112.64-112.64 112.64H276.48c-107.52 0-189.44 81.92-189.44 189.44s81.92 189.44 189.44 189.44H563.2c15.36 51.2 61.44 87.04 117.76 87.04 56.32 0 102.4-35.84 117.76-87.04H896c20.48 0 40.96-15.36 40.96-40.96s-20.48-40.96-40.96-40.96z m-552.96-512c-25.6 0-46.08-20.48-46.08-46.08s20.48-46.08 46.08-46.08 46.08 20.48 46.08 46.08-20.48 46.08-46.08 46.08z m337.92 599.04c-25.6 0-46.08-20.48-46.08-46.08S655.36 768 680.96 768s46.08 20.48 46.08 46.08c0 20.48-20.48 46.08-46.08 46.08z" fill="#0fbd8c" p-id="51471"></path></svg>