<?xml version="1.0" encoding="utf-8"?>
<!-- Generator: Adobe Illustrator 26.0.0, SVG Export Plug-In . SVG Version: 6.00 Build 0)  -->
<svg version="1.1" id="Layer_1" xmlns="http://www.w3.org/2000/svg" xmlns:xlink="http://www.w3.org/1999/xlink" x="0px" y="0px"
	 viewBox="0 0 200 200" style="enable-background:new 0 0 200 200;" xml:space="preserve">
<style type="text/css">
	.st0{fill:none;stroke:#177ecc;stroke-width:5.6693;stroke-miterlimit:10;}
	.st1{fill:none;stroke:#177ecc;stroke-width:2.8346;stroke-miterlimit:10;}
	.st2{fill:none;stroke:#177ecc;stroke-width:2.126;stroke-miterlimit:10;}
</style>
<path class="st0" d="M172.71,173.8H27.29c-8.28,0-15-6.72-15-15V41.2c0-8.28,6.72-15,15-15h145.42c8.28,0,15,6.72,15,15V158.8
	C187.71,167.09,180.99,173.8,172.71,173.8z"/>
<path class="st0" d="M135.9,112.68H64.1c-5.15,0-9.33-4.18-9.33-9.33V55.39c0-5.15,4.18-9.33,9.33-9.33h71.79
	c5.15,0,9.33,4.18,9.33,9.33v47.96C145.23,108.5,141.05,112.68,135.9,112.68z"/>
<g>
	<circle class="st1" cx="100.07" cy="149.99" r="6.04"/>
	<circle class="st1" cx="137.78" cy="149.99" r="6.04"/>
	<circle class="st1" cx="63.1" cy="149.99" r="6.04"/>
	<circle class="st1" cx="29.19" cy="149.99" r="6.04"/>
	<circle class="st1" cx="170.81" cy="149.99" r="6.04"/>
</g>
<path class="st2" d="M41.84,96.89h-9.73c-1.66,0-3-1.34-3-3V82.37c0-1.66,1.34-3,3-3h9.73c1.66,0,3,1.34,3,3v11.52
	C44.84,95.55,43.5,96.89,41.84,96.89z"/>
<path class="st2" d="M158.16,96.89h9.73c1.66,0,3-1.34,3-3V82.37c0-1.66-1.34-3-3-3h-9.73c-1.66,0-3,1.34-3,3v11.52
	C155.16,95.55,156.5,96.89,158.16,96.89z"/>
<line class="st2" x1="12.29" y1="139.47" x2="186.02" y2="139.47"/>
</svg>
