<?xml version="1.0" standalone="no"?><!DOCTYPE svg PUBLIC "-//W3C//DTD SVG 1.1//EN" "http://www.w3.org/Graphics/SVG/1.1/DTD/svg11.dtd"><svg t="1719670960973" class="icon" viewBox="0 0 1024 1024" version="1.1" xmlns="http://www.w3.org/2000/svg" p-id="109567" xmlns:xlink="http://www.w3.org/1999/xlink" width="200" height="200"><path d="M268.373333 341.333333H170.666667a170.666667 170.666667 0 1 1 170.666666-170.666666v97.706666A72.96 72.96 0 0 1 268.373333 341.333333zM170.666667 85.333333a85.333333 85.333333 0 0 0 0 170.666667h85.333333V170.666667a85.333333 85.333333 0 0 0-85.333333-85.333334z" p-id="109568"></path><path d="M768 768H256V256h512z m-426.666667-85.333333h341.333334V341.333333H341.333333z" p-id="109569"></path><path d="M853.333333 341.333333h-97.706666A72.96 72.96 0 0 1 682.666667 268.373333V170.666667a170.666667 170.666667 0 1 1 170.666666 170.666666z m-85.333333-85.333333h85.333333a85.333333 85.333333 0 1 0-85.333333-85.333333zM853.333333 1024a170.666667 170.666667 0 0 1-170.666666-170.666667v-97.706666A72.96 72.96 0 0 1 755.626667 682.666667H853.333333a170.666667 170.666667 0 0 1 0 341.333333z m-85.333333-256v85.333333a85.333333 85.333333 0 1 0 85.333333-85.333333zM170.666667 1024a170.666667 170.666667 0 0 1 0-341.333333h97.706666A72.96 72.96 0 0 1 341.333333 755.626667V853.333333a170.666667 170.666667 0 0 1-170.666666 170.666667z m0-256a85.333333 85.333333 0 1 0 85.333333 85.333333v-85.333333z" p-id="109570"></path></svg>