<?xml version="1.0" standalone="no"?><!DOCTYPE svg PUBLIC "-//W3C//DTD SVG 1.1//EN" "http://www.w3.org/Graphics/SVG/1.1/DTD/svg11.dtd"><svg t="1719671031151" class="icon" viewBox="0 0 1024 1024" version="1.1" xmlns="http://www.w3.org/2000/svg" p-id="110576" xmlns:xlink="http://www.w3.org/1999/xlink" width="200" height="200"><path d="M377.6 652.8q0 4.416-0.832 8.768-0.896 4.288-2.56 8.32-1.728 4.16-4.16 7.808-2.432 3.648-5.568 6.784-3.136 3.136-6.784 5.568-3.648 2.432-7.744 4.16-4.096 1.664-8.384 2.56-4.352 0.832-8.768 0.832t-8.768-0.832q-4.288-0.896-8.32-2.56-4.16-1.728-7.808-4.16-3.648-2.432-6.784-5.568-3.136-3.136-5.568-6.784-2.432-3.648-4.16-7.744-1.664-4.096-2.56-8.384-0.832-4.352-0.832-8.768t0.832-8.768q0.896-4.288 2.56-8.32 1.728-4.16 4.16-7.808 2.432-3.648 5.568-6.784 3.136-3.136 6.784-5.568 3.648-2.432 7.744-4.16 4.096-1.664 8.384-2.56 4.352-0.832 8.768-0.832t8.768 0.832q4.288 0.896 8.32 2.56 4.16 1.728 7.808 4.16 3.648 2.432 6.784 5.568 3.136 3.136 5.568 6.784 2.432 3.648 4.16 7.744 1.664 4.096 2.56 8.384 0.832 4.352 0.832 8.768z m179.2 0q0 4.416-0.832 8.768-0.896 4.288-2.56 8.32-1.728 4.16-4.16 7.808-2.432 3.648-5.568 6.784-3.136 3.136-6.784 5.568-3.648 2.432-7.744 4.16-4.096 1.664-8.384 2.56-4.352 0.832-8.768 0.832t-8.768-0.832q-4.288-0.896-8.32-2.56-4.16-1.728-7.808-4.16-3.648-2.432-6.784-5.568-3.136-3.136-5.568-6.784-2.432-3.648-4.16-7.744-1.664-4.096-2.56-8.384-0.832-4.352-0.832-8.768t0.832-8.768q0.896-4.288 2.56-8.32 1.728-4.16 4.16-7.808 2.432-3.648 5.568-6.784 3.136-3.136 6.784-5.568 3.648-2.432 7.744-4.16 4.096-1.664 8.384-2.56Q507.584 608 512 608t8.768 0.832q4.288 0.896 8.32 2.56 4.16 1.728 7.808 4.16 3.648 2.432 6.784 5.568 3.136 3.136 5.568 6.784 2.432 3.648 4.16 7.744 1.664 4.096 2.56 8.384 0.832 4.352 0.832 8.768z m179.2 0q0 4.416-0.832 8.768-0.896 4.288-2.56 8.32-1.728 4.16-4.16 7.808-2.432 3.648-5.568 6.784-3.136 3.136-6.784 5.568-3.648 2.432-7.744 4.16-4.096 1.664-8.384 2.56-4.352 0.832-8.768 0.832t-8.768-0.832q-4.288-0.896-8.32-2.56-4.16-1.728-7.808-4.16-3.648-2.432-6.784-5.568-3.136-3.136-5.568-6.784-2.432-3.648-4.16-7.744-1.664-4.096-2.56-8.384-0.832-4.352-0.832-8.768t0.832-8.768q0.896-4.288 2.56-8.32 1.728-4.16 4.16-7.808 2.432-3.648 5.568-6.784 3.136-3.136 6.784-5.568 3.648-2.432 7.744-4.16 4.096-1.664 8.384-2.56 4.352-0.832 8.768-0.832t8.768 0.832q4.288 0.896 8.32 2.56 4.16 1.728 7.808 4.16 3.648 2.432 6.784 5.568 3.136 3.136 5.568 6.784 2.432 3.648 4.16 7.744 1.664 4.096 2.56 8.384 0.832 4.352 0.832 8.768zM256 208v32a16 16 0 0 1-16 16H160v512h80a16 16 0 0 1 16 16v32a16 16 0 0 1-16 16H160a64 64 0 0 1-64-64V256a64 64 0 0 1 64-64h80a16 16 0 0 1 16 16m512 0v32c0 8.832 7.168 16 16 16h80v512h-80a16 16 0 0 0-16 16v32c0 8.832 7.168 16 16 16h80a64 64 0 0 0 64-64V256a64 64 0 0 0-64-64h-80a16 16 0 0 0-16 16" p-id="110577" fill="#9966ff"></path></svg>