<?xml version="1.0" standalone="no"?><!DOCTYPE svg PUBLIC "-//W3C//DTD SVG 1.1//EN" "http://www.w3.org/Graphics/SVG/1.1/DTD/svg11.dtd"><svg t="1719670350274" class="icon" viewBox="0 0 1025 1024" version="1.1" xmlns="http://www.w3.org/2000/svg" p-id="28655" xmlns:xlink="http://www.w3.org/1999/xlink" width="200.1953125" height="200"><path d="M419.991673 28.216592L220.193783 221.056686l-63.711584-63.711584A90.042067 90.042067 0 1 0 28.990817 284.76827l63.779798 63.779798 84.380331 90.383135c23.533722 25.239064 63.302302 25.921201 87.722802 1.500702l282.541093-282.541094A90.928845 90.928845 0 1 0 419.991673 28.216592z m443.388968 583.29524l-49.38671 52.933822a15.075225 15.075225 0 0 1-22.101234 0l-50.546343-54.161668a93.316324 93.316324 0 1 0-131.857057 131.857058l54.093454 50.546342a15.075225 15.075225 0 0 1 0 22.101235l-52.865608 49.386709a91.679196 91.679196 0 0 0 127.354954 131.857058l54.161668-54.161668a15.211652 15.211652 0 0 1 21.419098 0l53.002035 53.070249a90.178495 90.178495 0 0 0 127.491382-127.491382l-53.070249-53.002035a15.211652 15.211652 0 0 1 0-21.419097l54.161668-54.093455a91.679196 91.679196 0 1 0-131.857058-127.423168z m16.916995-586.228429L24.488714 881.160539a83.698194 83.698194 0 0 0 118.350747 118.350747L998.648383 143.634151A83.698194 83.698194 0 0 0 880.297636 25.283403z" fill="#4c97ff" p-id="28656"></path></svg>