<?xml version="1.0" standalone="no"?><!DOCTYPE svg PUBLIC "-//W3C//DTD SVG 1.1//EN" "http://www.w3.org/Graphics/SVG/1.1/DTD/svg11.dtd"><svg t="1723084844707" class="icon" viewBox="0 0 1024 1024" version="1.1" xmlns="http://www.w3.org/2000/svg" p-id="28667" xmlns:xlink="http://www.w3.org/1999/xlink" width="200" height="200"><path d="M972.616 99.676a19.702 19.702 0 0 0-6.185-4.628 19.395 19.395 0 0 0-21.381 3.4l-90.87 81.448C736.174 60.866 558.449 8.54 386.253 58.82 135.987 131.912-7.68 394.056 65.393 644.342s335.216 393.912 585.482 320.84c162.263-47.37 279.716-174.162 322.314-325.714 1.454-5.284 1.29-11.183 1.29-16.917a61.297 61.297 0 0 0-61.317-61.297 61.563 61.563 0 0 0-58.675 42.353C824.054 715.715 737.772 809.8 618.045 844.739 435.16 898.15 243.61 793.169 190.198 610.243c-53.392-182.907 51.61-374.477 234.496-427.89 122.614-35.798 249.16-0.388 335.319 81.962l-93.389 83.62a19.517 19.517 0 0 0-5.734 20.91c2.642 7.475 9.625 12.697 17.551 13.127l278.139 31.52a19.784 19.784 0 0 0 20.746-18.597l0.287-281.006a19.517 19.517 0 0 0-4.997-14.213z" p-id="28668" fill="#0fbd8c"></path></svg>