<?xml version="1.0" standalone="no"?><!DOCTYPE svg PUBLIC "-//W3C//DTD SVG 1.1//EN" "http://www.w3.org/Graphics/SVG/1.1/DTD/svg11.dtd"><svg t="1719670385984" class="icon" viewBox="0 0 1024 1024" version="1.1" xmlns="http://www.w3.org/2000/svg" p-id="30916" xmlns:xlink="http://www.w3.org/1999/xlink" width="200" height="200"><path d="M303.402667 94.805333a52.138667 52.138667 0 1 0-104.277334 0v104.32H94.805333a52.138667 52.138667 0 1 0 0 104.277334h104.32v104.32a52.138667 52.138667 0 1 0 104.277334 0V303.36h104.32a52.138667 52.138667 0 1 0 0-104.277333H303.36V94.805333zM616.277333 199.125333a52.138667 52.138667 0 0 0 0 104.277334h312.917334a52.138667 52.138667 0 0 0 0-104.277334h-312.917334zM60.629333 661.973333a56.490667 56.490667 0 1 1 79.872-79.829333l97.408 97.408a18.986667 18.986667 0 0 0 26.666667 0l97.450667-97.408a56.533333 56.533333 0 1 1 79.829333 79.829333L344.448 759.466667a18.986667 18.986667 0 0 0 0 26.666666l97.408 97.408a56.490667 56.490667 0 1 1-79.829333 79.829334L264.533333 865.92a18.986667 18.986667 0 0 0-26.666666 0l-97.408 97.408a56.490667 56.490667 0 0 1-79.872-79.829333l97.450666-97.408a18.986667 18.986667 0 0 0 0-26.666667L60.586667 661.973333zM824.874667 616.277333a52.138667 52.138667 0 1 1-104.277334 0 52.138667 52.138667 0 0 1 104.277334 0zM824.874667 929.194667a52.138667 52.138667 0 1 1-104.277334 0 52.138667 52.138667 0 0 1 104.277334 0zM967.253333 735.872a46.336 46.336 0 0 0-34.048-15.274667H612.266667c-12.757333 0-25.002667 5.504-34.005334 15.274667-9.045333 9.813333-14.08 23.04-14.08 36.864 0 13.824 5.034667 27.093333 14.08 36.864 9.002667 9.813333 21.248 15.274667 34.005334 15.274667h320.938666c12.757333 0 25.002667-5.461333 34.048-15.274667 9.002667-9.770667 14.08-23.04 14.08-36.864 0-13.824-5.077333-27.093333-14.08-36.864z" fill="#59c059" p-id="30917"></path></svg>