<?xml version="1.0" encoding="utf-8"?>
<!-- Generator: Adobe Illustrator 26.0.0, SVG Export Plug-In . SVG Version: 6.00 Build 0)  -->
<svg version="1.1" id="Layer_1" xmlns="http://www.w3.org/2000/svg" xmlns:xlink="http://www.w3.org/1999/xlink" x="0px" y="0px"
	 viewBox="0 0 200 200" style="enable-background:new 0 0 200 200;" xml:space="preserve">
<style type="text/css">
	.st0{fill:none;stroke:#7391B4;stroke-width:5.6693;stroke-miterlimit:10;}
	.st1{fill:none;stroke:#7391B4;stroke-width:4.252;stroke-miterlimit:10;}
</style>
<g>
	<path class="st0" d="M155.88,189.11H44.12c-4.64,0-8.43-3.79-8.43-8.43V19.32c0-4.64,3.79-8.43,8.43-8.43h111.77
		c4.64,0,8.43,3.79,8.43,8.43v161.37C164.31,185.32,160.52,189.11,155.88,189.11z"/>
	<path class="st0" d="M140.57,91.01H59.43c-2.91,0-5.27-2.36-5.27-5.27V29.91c0-2.91,2.36-5.27,5.27-5.27h81.15
		c2.91,0,5.27,2.36,5.27,5.27v55.84C145.84,88.65,143.48,91.01,140.57,91.01z"/>
	<g>
		<circle class="st1" cx="100" cy="137.78" r="9.55"/>
		<path class="st1" d="M97.16,104.75l-6.29,10.9c-1.26,2.19,0.32,4.92,2.84,4.92h12.59c2.53,0,4.11-2.73,2.84-4.92l-6.29-10.9
			C101.58,102.56,98.42,102.56,97.16,104.75z"/>
		<path class="st1" d="M97.16,170.81l-6.29-10.9c-1.26-2.19,0.32-4.92,2.84-4.92h12.59c2.53,0,4.11,2.73,2.84,4.92l-6.29,10.9
			C101.58,172.99,98.42,172.99,97.16,170.81z"/>
		<path class="st1" d="M133.03,140.63l-10.9,6.29c-2.19,1.26-4.92-0.32-4.92-2.84v-12.59c0-2.53,2.73-4.11,4.92-2.84l10.9,6.29
			C135.21,136.2,135.21,139.36,133.03,140.63z"/>
		<path class="st1" d="M66.97,134.94l10.9-6.29c2.19-1.26,4.92,0.32,4.92,2.84v12.59c0,2.53-2.73,4.11-4.92,2.84l-10.9-6.29
			C64.79,139.36,64.79,136.2,66.97,134.94z"/>
	</g>
</g>
</svg>
