<?xml version="1.0" standalone="no"?><!DOCTYPE svg PUBLIC "-//W3C//DTD SVG 1.1//EN" "http://www.w3.org/Graphics/SVG/1.1/DTD/svg11.dtd"><svg t="1719670692974" class="icon" viewBox="0 0 1024 1024" version="1.1" xmlns="http://www.w3.org/2000/svg" p-id="67915" xmlns:xlink="http://www.w3.org/1999/xlink" width="200" height="200"><path d="M284.992 432.64c20.352 20.288 33.92 54.144 33.92 94.848v223.552h-67.84v-47.36c-13.44 20.288-27.072 33.856-47.36 40.576-20.352 13.568-47.424 13.568-81.28 13.568-33.92 0-67.84-6.784-88.128-27.072-20.352-20.352-33.92-40.704-33.92-67.776 0-40.64 13.568-67.776 47.488-88.064 27.072-20.352 67.712-33.92 121.92-33.92h81.28v-13.504c0-47.488-27.072-74.56-81.28-74.56-20.288 0-40.64 6.784-54.208 13.568a69.376 69.376 0 0 0-33.856 40.64L13.952 500.352c6.784-40.64 27.136-67.776 54.208-81.28 27.136-13.568 60.992-20.352 101.632-20.352 54.208-6.784 88.128 6.784 115.2 33.92z m-115.2 155.776c-67.712 0-94.848 27.136-94.848 67.84 0 13.44 6.784 27.072 13.568 33.792 13.568 6.784 27.072 13.568 40.64 13.568 27.136 0 54.208-6.784 74.56-27.072 20.288-20.352 33.92-40.704 33.92-67.776v-20.352h-67.84z m250.752-331.968v196.48c27.072-40.64 60.992-60.992 108.416-60.992 47.36 0 88.064 20.352 115.2 54.208 27.072 33.92 40.64 74.56 40.64 128.768s-13.568 94.848-40.64 128.704c-27.136 33.92-67.84 54.208-121.984 54.208-47.424 0-81.28-20.288-108.416-54.208v47.424H345.984V256.448h74.56zM447.616 480c-20.288 20.352-27.072 54.208-27.072 88.128v6.784c0 33.856 6.784 60.928 20.288 88.064 13.568 27.072 40.704 33.92 74.56 33.92 33.92 0 60.992-13.568 74.56-40.704 13.504-20.352 20.288-54.208 20.288-88.064 0-40.64-6.784-67.776-20.288-88.128-13.568-27.072-40.704-33.856-81.28-33.856-27.136 6.784-47.488 13.568-61.056 33.92zM969.344 419.072c27.136 20.288 47.488 54.208 54.208 94.848h-67.712c-6.784-20.352-13.568-40.64-27.136-54.208-13.568-13.568-33.92-13.568-60.992-13.568-27.072 0-54.208 13.568-67.712 33.92-20.352 20.288-27.136 54.144-27.136 94.848 0 40.64 6.784 67.712 27.136 94.848 13.504 20.288 40.64 33.92 67.712 33.92 54.208 0 81.28-27.136 88.128-81.344h67.712c-6.72 47.36-27.072 81.28-54.208 101.632-27.072 20.288-60.928 33.92-108.416 33.92-54.208 0-94.848-20.352-121.92-54.272-27.136-33.92-40.704-74.496-40.704-128.704 0-54.208 13.568-94.912 40.704-128.768 33.92-33.92 74.496-54.208 128.704-54.208 40.704 0 74.56 6.784 101.632 27.136z" fill="#ffbf00" p-id="67916"></path></svg>