<?xml version="1.0" encoding="utf-8"?>
<!-- Generator: Adobe Illustrator 26.0.0, SVG Export Plug-In . SVG Version: 6.00 Build 0)  -->
<svg version="1.1" id="图层_1" xmlns="http://www.w3.org/2000/svg" xmlns:xlink="http://www.w3.org/1999/xlink" x="0px" y="0px"
	 viewBox="0 0 405.42 273.34" style="enable-background:new 0 0 405.42 273.34;" xml:space="preserve">
<style type="text/css">
	.st0{fill:#00A1E9;}
	.st1{fill:#2EA7E0;}
	.st2{fill:#FFFFFF;}
	.st3{fill:#4279B4;}
	.st4{fill:#FFD018;}
	.st5{fill:#009FE3;}
</style>
<g>
	<path class="st5" d="M199.76,197.84h-53.07c-20.64,0-39.88-7.78-54.2-22.1c-14.99-14.99-23.23-35.42-23.23-57.54
		c0-43.78,36.79-79.36,81.54-79.36c18.6,0,35.46,6.71,48.78,18.25V1.62C193.81,0.56,187.86,0,181.79,0
		c-28.93,0-54.93,12.53-72.88,32.46c-7.05-4.01-15.2-6.32-23.89-6.32c-26.73,0-48.39,21.66-48.39,48.39c0,3.43,0.36,6.77,1.04,10
		C14.62,104.2,0,133.43,0,166.1c0,59.23,48.01,107.24,107.24,107.24c30.29,0,57.62-12.58,77.12-32.77
		c4.38,5.95,9.57,11.27,15.4,15.8V197.84z"/>
	<path class="st5" d="M342.65,98.09c-1.82,0-3.63,0.09-5.41,0.25c1.81-5.87,2.79-12.1,2.79-18.56c0-34.67-28.11-62.78-62.78-62.78
		c-10.99,0-21.32,2.83-30.3,7.8c-5.8-5.17-12.23-9.65-19.14-13.33v99.67h-28.24v-4.15C194,88.1,178.14,67.07,150.8,67.07
		c-14.2,0-28.47,5.72-38.48,15.72c-9.57,9.59-14.83,22.16-14.83,35.4c0,14.57,5.3,27.92,14.97,37.58
		c8.97,8.98,21.12,13.92,34.18,13.92l53.11-0.08V146.2l0.22-2.52c2.34-12.77,12.76-22.77,25.39-24.3l1.69-0.1h108.31
		c1.67,12.41,0.32,23.22-0.56,28.23H228.57c-0.2,0.12-0.42,0.36-0.6,0.63v21.44l70.42-0.12l0.04,28.37h-70.46v72.68
		c6.75,1.84,13.84,2.82,21.17,2.82c34.55,0,64-21.79,75.39-52.37c5.74,1.73,11.82,2.67,18.12,2.67c34.67,0,62.77-28.1,62.77-62.78
		C405.42,126.19,377.32,98.09,342.65,98.09"/>
</g>
</svg>
