<?xml version="1.0" standalone="no"?><!DOCTYPE svg PUBLIC "-//W3C//DTD SVG 1.1//EN" "http://www.w3.org/Graphics/SVG/1.1/DTD/svg11.dtd"><svg t="1726038666932" class="icon" viewBox="0 0 1024 1024" version="1.1" xmlns="http://www.w3.org/2000/svg" p-id="17326" xmlns:xlink="http://www.w3.org/1999/xlink" width="200" height="200"><path d="M666.044934 406.577972c0-23.195282-18.790972-41.987277-41.986253-41.987277L399.926993 364.590696c-23.181979 0-41.987277 18.790972-41.987277 41.987277l0 224.137827c0 23.168676 18.805298 41.986253 41.987277 41.986253l224.130663 0c23.195282 0 41.986253-18.818601 41.986253-41.986253L666.04391 406.577972zM638.03602 630.715799c0 7.713682-6.250354 13.977339-13.977339 13.977339L399.926993 644.693138c-7.713682 0-13.977339-6.263657-13.977339-13.977339L385.949654 406.577972c0-7.713682 6.263657-13.977339 13.977339-13.977339l224.130663 0c7.726985 0 13.977339 6.263657 13.977339 13.977339L638.034996 630.715799zM511.992325 960.155926c119.698173 0 232.241388-46.63718 316.89951-131.295302 84.644819-84.630493 131.267673-197.161429 131.267673-316.864718 0-119.697149-46.623877-232.227062-131.267673-316.871881C744.233714 110.466927 631.690498 63.84305 511.992325 63.84305c-119.710452 0-232.241388 46.623877-316.871881 131.280975C110.462323 279.768845 63.839469 392.298757 63.839469 511.995907c0 119.704312 46.623877 232.234225 131.280975 316.864718C279.750937 913.518746 392.281873 960.155926 511.992325 960.155926zM214.923466 214.914768C294.275745 135.563512 399.762241 91.852988 511.992325 91.852988c112.215758 0 217.729883 43.710524 297.095465 123.06178 79.351256 79.364559 123.06178 184.852078 123.06178 297.081139 0 112.208595-43.710524 217.71044-123.06178 297.061696-79.365582 79.377862-184.879708 123.088386-297.095465 123.088386-112.230084 0-217.71658-43.710524-297.068859-123.088386-79.351256-79.351256-123.07406-184.853102-123.07406-297.061696C91.849406 399.766846 135.57221 294.279327 214.923466 214.914768z" p-id="17327" fill="#ffffff"></path></svg>