<?xml version="1.0" standalone="no"?><!DOCTYPE svg PUBLIC "-//W3C//DTD SVG 1.1//EN" "http://www.w3.org/Graphics/SVG/1.1/DTD/svg11.dtd"><svg fill="#fff" t="1719138033051" class="icon" viewBox="0 0 1024 1024" version="1.1" xmlns="http://www.w3.org/2000/svg" p-id="37744" xmlns:xlink="http://www.w3.org/1999/xlink" width="30" height="30"><path d="M634.398611 970.766808H156.820829c-22.154191 0-40.175994-15.266878-40.175994-34.092201v-849.435305C116.644835 68.413979 134.724032 53.089707 156.820829 53.089707h700.95631c22.154191 0 40.175994 15.266878 40.175994 34.0922v599.138862a26.516156 26.516156 0 0 0 53.089706 0V87.239302c0-48.096404-41.897822-87.239302-93.2657-87.239302H156.820829C105.452951 0 63.555128 39.142897 63.555128 87.239302v849.435305c0 48.096404 41.897822 87.239302 93.265701 87.239302h477.520388a26.57355 26.57355 0 0 0 0-53.089707z" p-id="37745"></path><path d="M799.234976 310.962195a26.530505 26.530505 0 0 0-26.516156-26.516156h-530.897066a26.516156 26.516156 0 1 0 0 53.089706h530.782277a26.559202 26.559202 0 0 0 26.630945-26.57355zM241.821754 553.739988a26.516156 26.516156 0 1 0 0 53.089707h353.893114a26.516156 26.516156 0 1 0 0-53.089707zM933.881951 819.131127h-125.234314v-125.119525a26.516156 26.516156 0 1 0-53.089706 0v125.119525h-125.119525a26.516156 26.516156 0 0 0 0 53.089706h125.119525v125.234314a26.516156 26.516156 0 1 0 53.089706 0v-125.291708h125.119525a26.516156 26.516156 0 1 0 0.114789-53.089706z" p-id="37746"></path></svg>