<svg  fill="#fff" t="1719135941749" class="icon" viewBox="0 0 1024 1024" version="1.1" xmlns="http://www.w3.org/2000/svg" p-id="34158" xmlns:xlink="http://www.w3.org/1999/xlink" width="200" height="200"><path d="M812.49 456.59c-17.48 0-31.67 13.69-31.76 30.64v279.18c0 26.72-22.34 48.38-49.89 48.38H293.16c-27.55 0-49.89-21.66-49.89-48.38V487.23c0-17.01-14.22-30.8-31.77-30.8-17.54 0-31.76 13.79-31.76 30.8v279.18c-0.09 60.94 50.58 110.52 113.41 110.96h437.19c62.99-0.27 113.91-49.87 113.91-110.96V487.23c-0.08-16.95-14.28-30.64-31.76-30.64z" p-id="34159"></path><path d="M415.6 664.92h189.81c19.19-0.35 35.86 13.15 39.5 32 3.05 20.61-11.18 39.79-31.79 42.85-1.84 0.27-3.69 0.41-5.54 0.41H418.56c-19.25 0.33-35.94-13.27-39.5-32.19-2.95-20.63 11.38-39.74 32-42.69 1.51-0.22 3.02-0.35 4.54-0.38z" p-id="34160"></path><path d="M539.26 149.8l158.01 181.12c3.6 4.1 3.2 10.34-0.9 13.94a9.897 9.897 0 0 1-6.6 2.46h-77.62a9.683 9.683 0 0 0-9.68 8.49c-5.93 42.07-41.08 228.52-207.59 256.77-5.5 0.83-10.64-2.95-11.47-8.45-0.52-3.42 0.75-6.87 3.37-9.13a210.553 210.553 0 0 0 76.44-142.61 773.17 773.17 0 0 0 5.73-94.61c-0.1-5.44-4.43-9.86-9.88-10.07h-85.33c-5.45 0.05-9.91-4.33-9.96-9.79-0.02-2.43 0.85-4.78 2.46-6.6L524.25 150.4c3.37-4.28 9.58-5.02 13.87-1.65 0.4 0.32 0.78 0.67 1.14 1.05z" p-id="34161" ></path></svg>