<?xml version="1.0" standalone="no"?><!DOCTYPE svg PUBLIC "-//W3C//DTD SVG 1.1//EN" "http://www.w3.org/Graphics/SVG/1.1/DTD/svg11.dtd"><svg t="1723616996312" class="icon" viewBox="0 0 1024 1024" version="1.1" xmlns="http://www.w3.org/2000/svg" p-id="30009" xmlns:xlink="http://www.w3.org/1999/xlink" width="200" height="200"><path d="M907.4 517.8c-12-12.1-28.6-19.5-46.8-19.5h-89.4l0.1-175.6c0-0.6 0.1-1.2 0.1-1.9 0-6.2-2.8-11.8-7.2-15.6L597.6 138.4c-3.8-4.5-9.5-7.4-15.8-7.4-0.6 0-1.3 0-1.9 0.1l-270-0.1c-18.2 0-34.8 7.4-46.8 19.4s-19.5 28.6-19.5 46.8v301h-80.2c-18.2 0-34.8 7.4-46.8 19.5l-1.2 1.3c-11.3 11.9-18.3 27.9-18.3 45.5v262.2c0 18.2 7.5 34.8 19.5 46.8l1.4 1.2c11.9 11.3 27.9 18.2 45.5 18.2h697.2c18.3 0 34.9-7.5 46.8-19.5 12-12 19.4-28.6 19.4-46.8V564.5c0-18.1-7.5-34.7-19.5-46.7zM602.3 201.2l98.9 99h-73.8c-6.9 0-13.2-2.8-17.7-7.3l-0.1-0.1c-4.5-4.5-7.3-10.8-7.3-17.7v-73.9zM284.8 518.9V197.3c0-6.9 2.8-13.2 7.4-17.8s10.8-7.4 17.8-7.4v-0.1h251.2v103c0 18.1 7.4 34.7 19.4 46.7l0.1 0.1c12 12 28.6 19.5 46.8 19.5h102.9l-0.1 175c-0.1 0.8-0.1 1.6-0.1 2.5v67.5H284.8v-67.4z m600.9 307.8c0 6.9-2.9 13.2-7.4 17.7-4.6 4.6-10.8 7.4-17.8 7.4H163.4c-6.6 0-12.6-2.5-17-6.5l-0.8-0.8c-4.6-4.6-7.4-10.8-7.4-17.7V564.5c0-6.6 2.5-12.5 6.6-17l0.8-0.7c4.6-4.6 10.8-7.4 17.7-7.4h80.2V607l0.1 0.5v2l0.1 0.5 0.1 0.5 0.1 0.5c1.9 9.4 10.2 16.4 20.2 16.4h486.4c11.4 0 20.6-9.2 20.6-20.5v-67.5h89.4c6.9 0 13.2 2.8 17.8 7.4 4.6 4.6 7.4 10.9 7.4 17.8v262.1z" fill="#fff" p-id="30010"></path><path d="M234.4 812.8c-11.3 0-20.5-9.2-20.5-20.6 0-11.3 9.2-20.6 20.5-20.6h555.1c11.4 0 20.6 9.2 20.6 20.6 0 11.3-9.2 20.6-20.6 20.6H234.4zM234.5 722.9c-11.3 0-20.6-9.2-20.6-20.6 0-11.3 9.2-20.6 20.6-20.6h60.9c11.4 0 20.6 9.2 20.6 20.6 0 11.3-9.2 20.6-20.6 20.6h-60.9z" fill="#fff" p-id="30011"></path></svg>