<?xml version="1.0" standalone="no"?><!DOCTYPE svg PUBLIC "-//W3C//DTD SVG 1.1//EN" "http://www.w3.org/Graphics/SVG/1.1/DTD/svg11.dtd"><svg t="1719110620485" class="icon" viewBox="0 0 1024 1024" version="1.1" xmlns="http://www.w3.org/2000/svg" p-id="5083" xmlns:xlink="http://www.w3.org/1999/xlink" width="200" height="200"><path d="M866.367354 946.881939H237.906747c-13.747717 0-26.512808-7.226182-33.623919-18.932363-7.108525-11.783758-7.541657-26.435232-1.13907-38.57196l12.608646-23.881697c30.205414-57.072485 61.430949-116.068848 61.43095-144.938666 0-10.567111 0-15.358707-17.832081-15.358708-16.69301 0-33.270949 6.599111-38.022465 10.016324-20.975192 14.807919-51.259475 23.332202-83.114667 23.332202-32.443475 0-61.393455-8.680727-81.621333-24.432485-36.566626-28.593131-54.359919-87.669657-54.359919-180.602828 0-111.041939 62.846707-150.556444 121.646545-150.556445 20.817455 0 43.050667 4.94804 64.261172 14.374788 49.176566 21.800081 69.286788 21.01398 75.415273 20.111515 0.038788-0.550788 0.078869-1.177859 0.078868-1.925172 0.589576-74.786909-25.020768-248.595394-25.294868-250.32404a39.337374 39.337374 0 0 1 11.783757-34.210909C258.567758 122.930424 307.193535 82.747475 434.300121 82.747475c59.900121 0 89.752566 24.353616 104.207515 44.737939 16.889535 23.76404 21.132929 54.55903 11.429495 82.328566-23.134384 66.14497-25.844364 116.736-7.541656 142.504081 13.944242 19.678384 43.677737 29.655919 88.299313 29.655919 12.765091 0 40.025212-11.941495 60.529778-38.533172 18.813414-24.352323 37.392808-67.834828 19.325414-136.65099-6.481455-24.667798-1.140364-49.766141 15.004444-70.702545C751.71297 102.190545 803.05002 82.747475 866.367354 82.747475c36.372687 0 97.215354 0 146.549656 60.529778a39.377455 39.377455 0 0 1 8.838465 24.705292l1.727353 627.282748c0 83.664162-70.465939 151.616646-157.115474 151.616646z m-563.375839-78.558383h563.377131c42.577455 0 78.558384-33.427394 78.558384-72.940607l-1.689858-612.004202c-23.292121-22.074182-48.351677-22.074182-76.868526-22.074181-55.579152 0-78.990222 19.953778-79.932767 25.059555 20.503273 78.321778 8.759596 150.948202-33.034344 205.114182-32.364606 41.987879-80.559838 69.130343-122.706747 69.130343-71.527434 0-122.824404-21.132929-152.361374-62.767838-34.368646-48.469333-35.234909-120.467394-2.514747-213.951353 0.354263-1.021414 1.96396-6.284929-1.335596-10.920081-1.96396-2.750061-10.604606-11.666101-40.18295-11.666101-59.940202 0-95.839677 10.52703-114.53802 18.539313 7.385212 53.144566 22.900364 173.181414 22.388364 236.302222-0.35297 48.665859-33.110626 80.166788-83.467637 80.166788-27.729455 0-61.235717-8.87596-102.437495-27.141172-11.274343-4.988121-22.468525-7.620525-32.404687-7.620525-28.556929-0.038788-43.050667 24.157091-43.050666 71.960566 0 96.978747 21.721212 116.774788 24.195879 118.699959 4.94804 3.887838 17.164929 7.77697 33.229575 7.77697 17.361455 0 31.463434-4.438626 37.708283-8.917333 20.620929-14.611394 54.16598-24.431192 83.428849-24.431192 58.525737 0 96.389172 36.843313 96.389171 93.915798 0.001293 40.578586-22.976646 90.53996-52.750222 147.768889z" fill="" p-id="5084"></path></svg>